<?xml version="1.0" encoding="utf-8"?>
<!-- Generator: Adobe Illustrator 24.0.2, SVG Export Plug-In . SVG Version: 6.00 Build 0)  -->
<svg version="1.1"
	 id="svg8" xmlns:cc="http://creativecommons.org/ns#" xmlns:dc="http://purl.org/dc/elements/1.1/" xmlns:inkscape="http://www.inkscape.org/namespaces/inkscape" xmlns:rdf="http://www.w3.org/1999/02/22-rdf-syntax-ns#" xmlns:sodipodi="http://sodipodi.sourceforge.net/DTD/sodipodi-0.dtd" xmlns:svg="http://www.w3.org/2000/svg"
	 xmlns="http://www.w3.org/2000/svg" xmlns:xlink="http://www.w3.org/1999/xlink" x="0px" y="0px" viewBox="0 0 1371.1 694"
	 style="enable-background:new 0 0 1371.1 694;" xml:space="preserve">
<style type="text/css">
	.st0{fill:none;stroke:#000000;stroke-width:2.8346;stroke-miterlimit:11.3386;}
</style>
<sodipodi:namedview  bordercolor="#666666" borderopacity="1.0" id="base" inkscape:current-layer="g6617" inkscape:cx="1353.4652" inkscape:cy="739.4364" inkscape:document-units="mm" inkscape:pageopacity="0.0" inkscape:pageshadow="2" inkscape:window-height="1017" inkscape:window-maximized="1" inkscape:window-width="1920" inkscape:window-x="-8" inkscape:window-y="-8" inkscape:zoom="0.7" pagecolor="#ffffff" showgrid="false">
	</sodipodi:namedview>
<g id="layer1" inkscape:groupmode="layer" inkscape:label="Layer 1">
	<g id="g6610" transform="translate(-0.52916653,2.1922618)">
		<path id="path6498" inkscape:connector-curvature="0" inkscape:label="part" class="st0" d="M196.3,542.5h49.9v-4.4l0,0l0,0l0,0
			v-4.4h40.2v4.4l0,0l0,0l0,0v4.4H336v-4.4l0,0l0,0l0,0v-4.4h40.2v4.4l0,0l0,0l0,0v4.4h49.6v-4.4l0,0l0,0l0,0v-4.4H466v4.4l0,0l0,0
			l0,0v4.4h49.6v-4.4l0,0l0,0l0,0v-4.4H556v4.4l0,0l0,0l0,0v4.4h49.6v-4.4l0,0l0,0l0,0v-4.4h40.2v4.4l0,0l0,0l0,0v4.4h49.9"/>
		<path id="path6500" inkscape:connector-curvature="0" inkscape:label="part" class="st0" d="M695.8,542.5v37.1h-4.4l0,0l0,0l0,0
			H687v39.1h4.4l0,0l0,0l0,0h4.4v37.1"/>
		<path id="path6502" inkscape:connector-curvature="0" inkscape:label="part" class="st0" d="M695.8,655.9h-49.9v4.4l0,0l0,0l0,0
			v4.4h-40.2v-4.4l0,0l0,0l0,0v-4.4H556v4.4l0,0l0,0l0,0v4.4h-40.2v-4.4l0,0l0,0l0,0v-4.4h-49.6v4.4l0,0l0,0l0,0v4.4H426v-4.4l0,0
			l0,0l0,0v-4.4h-49.6v4.4l0,0l0,0l0,0v4.4h-40.2v-4.4l0,0l0,0l0,0v-4.4h-49.6v4.4l0,0l0,0l0,0v4.4h-40.2v-4.4l0,0l0,0l0,0v-4.4
			h-49.9"/>
		<path id="path6504" inkscape:connector-curvature="0" inkscape:label="part" class="st0" d="M196.3,655.9v-37.1h4.4l0,0l0,0l0,0
			h4.4v-39.1h-4.4l0,0l0,0l0,0h-4.4v-37.1"/>
	</g>
	<g id="g6604" transform="translate(-3.1749989,-1.3607143)">
		<path id="path6506" inkscape:connector-curvature="0" inkscape:label="part" class="st0" d="M66.2,175.2h36.6v-4.4l0,0l0,0l0,0
			v-4.4H143v4.4l0,0l0,0l0,0v4.4h36.6"/>
		<path id="path6508" inkscape:connector-curvature="0" inkscape:label="part" class="st0" d="M179.5,175.2v30.7h4.4l0,0l0,0l0,0
			h4.4v40.2h-4.4l0,0l0,0l0,0h-4.4v39.3h4.4l0,0l0,0l0,0h4.4v40.2h-4.4l0,0l0,0l0,0h-4.4v39.3h4.4l0,0l0,0l0,0h4.4v40.2h-4.4l0,0
			l0,0l0,0h-4.4v39.3h4.4l0,0l0,0l0,0h4.4v40.2h-4.4l0,0l0,0l0,0h-4.4v30.7"/>
		<path id="path6510" inkscape:connector-curvature="0" inkscape:label="part" class="st0" d="M179.5,515.3H143v4.4l0,0l0,0l0,0v4.4
			h-40.2v-4.4l0,0l0,0l0,0v-4.4H66.2"/>
		<path id="path6512" inkscape:connector-curvature="0" inkscape:label="part" class="st0" d="M66.2,515.3v-30.7h-4.4l0,0l0,0l0,0
			h-4.4v-40.2h4.4l0,0l0,0l0,0h4.4v-39.3h-4.4l0,0l0,0l0,0h-4.4v-40.2h4.4l0,0l0,0l0,0h4.4v-39.3h-4.4l0,0l0,0l0,0h-4.4v-40.2h4.4
			l0,0l0,0l0,0h4.4v-39.3h-4.4l0,0l0,0l0,0h-4.4v-40.2h4.4l0,0l0,0l0,0h4.4v-30.7"/>
	</g>
	<g id="g6598" transform="translate(-0.19000018,-1.1000002)">
		<path id="path6514" inkscape:connector-curvature="0" inkscape:label="part" class="st0" d="M196.9,166.8h50.4v4.4l0,0l0,0l0,0
			v4.4h39.1v-4.4l0,0l0,0l0,0v-4.4h50.7v4.4l0,0l0,0l0,0v4.4h39.1v-4.4l0,0l0,0l0,0v-4.4h50.7v4.4l0,0l0,0l0,0v4.4H466v-4.4l0,0l0,0
			l0,0v-4.4h50.7v4.4l0,0l0,0l0,0v4.4h39.1v-4.4l0,0l0,0l0,0v-4.4h50.7v4.4l0,0l0,0l0,0v4.4h39.1v-4.4l0,0l0,0l0,0v-4.4H696"/>
		<path id="path6516" inkscape:connector-curvature="0" inkscape:label="part" class="st0" d="M696.4,166.8v40.1H692l0,0l0,0l0,0
			h-4.4V246h4.4l0,0l0,0l0,0h4.4v40.3H692l0,0l0,0l0,0h-4.4v39.1h4.4l0,0l0,0l0,0h4.4v40.3H692l0,0l0,0l0,0h-4.4V405h4.4l0,0l0,0
			l0,0h4.4v40.3H692l0,0l0,0l0,0h-4.4v39.1h4.4l0,0l0,0l0,0h4.4v40.1"/>
		<path id="path6518" inkscape:connector-curvature="0" inkscape:label="part" class="st0" d="M696.4,524.6H646v-4.4l0,0l0,0l0,0
			v-4.4h-39.1v4.4l0,0l0,0l0,0v4.4h-50.7v-4.4l0,0l0,0l0,0v-4.4h-39.1v4.4l0,0l0,0l0,0v4.4h-50.7v-4.4l0,0l0,0l0,0v-4.4h-39.1v4.4
			l0,0l0,0l0,0v4.4h-50.7v-4.4l0,0l0,0l0,0v-4.4h-39.1v4.4l0,0l0,0l0,0v4.4h-50.7v-4.4l0,0l0,0l0,0v-4.4h-39.1v4.4l0,0l0,0l0,0v4.4
			h-50.4"/>
		<path id="path6520" inkscape:connector-curvature="0" inkscape:label="part" class="st0" d="M196.9,524.6v-40.1h4.4l0,0l0,0l0,0
			h4.4v-39.1h-4.4l0,0l0,0l0,0h-4.4V405h4.4l0,0l0,0l0,0h4.4v-39.1h-4.4l0,0l0,0l0,0h-4.4v-40.3h4.4l0,0l0,0l0,0h4.4v-39.1h-4.4l0,0
			l0,0l0,0h-4.4v-40.3h4.4l0,0l0,0l0,0h4.4v-39.1h-4.4l0,0l0,0l0,0h-4.4V167"/>
	</g>
	<g id="g6586" transform="translate(2.1166667)">
		<path id="path6522" inkscape:connector-curvature="0" inkscape:label="part" class="st0" d="M712.5,177.6h36.6v-4.4l0,0l0,0l0,0
			v-4.4h40.2v4.4l0,0l0,0l0,0v4.4h36.6"/>
		<path id="path6524" inkscape:connector-curvature="0" inkscape:label="part" class="st0" d="M825.9,177.6v30.7h4.4l0,0l0,0l0,0
			h4.4v40.2h-4.4l0,0l0,0l0,0h-4.4v39.3h4.4l0,0l0,0l0,0h4.4V328h-4.4l0,0l0,0l0,0h-4.4v39.3h4.4l0,0l0,0l0,0h4.4v40.2h-4.4l0,0l0,0
			l0,0h-4.4v39.3h4.4l0,0l0,0l0,0h4.4V487h-4.4l0,0l0,0l0,0h-4.4v30.7"/>
		<path id="path6526" inkscape:connector-curvature="0" inkscape:label="part" class="st0" d="M825.9,517.8h-36.6v4.4l0,0l0,0l0,0
			v4.4h-40.2v-4.4l0,0l0,0l0,0v-4.4h-36.6"/>
		<path id="path6528" inkscape:connector-curvature="0" inkscape:label="part" class="st0" d="M712.5,517.8v-30.7h-4.4l0,0l0,0l0,0
			h-4.4v-40.2h4.4l0,0l0,0l0,0h4.4v-39.3h-4.4l0,0l0,0l0,0h-4.4v-40.2h4.4l0,0l0,0l0,0h4.4v-39.3h-4.4l0,0l0,0l0,0h-4.4v-40.2h4.4
			l0,0l0,0l0,0h4.4v-39.3h-4.4l0,0l0,0l0,0h-4.4v-40.2h4.4l0,0l0,0l0,0h4.4v-30.7"/>
	</g>
	<g id="g6617">
		<g id="g6580" transform="translate(3.7419606,-0.30238096)">
			
				<path id="path6530" inkscape:connector-curvature="0" inkscape:label="part" sodipodi:nodetypes="cccccccccccccccccccccccccccccccccccccccccccccccccccccccccccccc" class="st0" d="
				M840.8,168.3c14.7-24.4,31.7-23,50.4,0v4.4l0,0l0,0l0,0v4.4h39.1v-4.4l0,0l0,0l0,0v-4.4c14.1-17.7,29.6-27.3,50.7,0v4.4l0,0l0,0
				l0,0v4.4h39.1v-4.4l0,0l0,0l0,0v-4.4c14.2-14.7,28.6-28.7,50.7,0v4.4l0,0l0,0l0,0v4.4h39.1v-4.4l0,0l0,0l0,0v-4.4
				c14.2-16.3,28.6-31.2,50.7,0v4.4l0,0l0,0l0,0v4.4h39.1v-4.4l0,0l0,0l0,0v-4.4c19.8-26.6,35.9-19.7,50.7,0v4.4l0,0l0,0l0,0v4.4
				h39.1v-4.4l0,0l0,0l0,0v-4.4c14.2-20.1,30.2-27.1,50.4,0"/>
			<path id="path6532" inkscape:connector-curvature="0" inkscape:label="part" class="st0" d="M1340.3,168.3v40.1h-4.4l0,0l0,0l0,0
				h-4.4v39.1h4.4l0,0l0,0l0,0h4.4v40.3h-4.4l0,0l0,0l0,0h-4.4V327h4.4l0,0l0,0l0,0h4.4v40.3h-4.4l0,0l0,0l0,0h-4.4v39.1h4.4l0,0
				l0,0l0,0h4.4v40.3h-4.4l0,0l0,0l0,0h-4.4V486h4.4l0,0l0,0l0,0h4.4v40"/>
			
				<path id="path6534" inkscape:connector-curvature="0" inkscape:label="part" sodipodi:nodetypes="cccccccccccccccccccccccccccccccccccccccccccccccccccccccccccccc" class="st0" d="
				M1340.3,526c-18.3,32.9-35,23.1-50.4,0v-4.4l0,0l0,0l0,0v-4.4h-39.1v4.4l0,0l0,0l0,0v4.4c-20,36.1-35.6,18.3-50.7,0v-4.4l0,0l0,0
				l0,0v-4.4H1161v4.4l0,0l0,0l0,0v4.4c-17.6,28.5-34.5,27.2-50.7,0v-4.4l0,0l0,0l0,0v-4.4H1071v4.4l0,0l0,0l0,0v4.4
				c-23.9,35-37.3,16.2-50.7,0v-4.4l0,0l0,0l0,0v-4.4h-39.1v4.4l0,0l0,0l0,0v4.4c-13.7,15.2-27.3,35.2-50.7,0v-4.4l0,0l0,0l0,0v-4.4
				h-39.1v4.4l0,0l0,0l0,0v4.4c-14.2,17.7-28.6,34-50.4,0"/>
			<path id="path6536" inkscape:connector-curvature="0" inkscape:label="part" class="st0" d="M840.8,526v-40h4.4l0,0l0,0l0,0h4.4
				v-39.1h-4.4l0,0l0,0l0,0h-4.4v-40.3h4.4l0,0l0,0l0,0h4.4v-39.1h-4.4l0,0l0,0l0,0h-4.4V327h4.4l0,0l0,0l0,0h4.4v-39.1h-4.4l0,0
				l0,0l0,0h-4.4v-40.3h4.4l0,0l0,0l0,0h4.4v-39.1h-4.4l0,0l0,0l0,0h-4.4v-40.1"/>
		</g>
	</g>
	<g id="g6592" transform="translate(-0.38000018,-4.2333337)">
		<path id="path6538" inkscape:connector-curvature="0" inkscape:label="part" class="st0" d="M196.6,35.8h49.9v-4.4l0,0l0,0l0,0V27
			h40.2v4.4l0,0l0,0l0,0v4.4h49.6v-4.4l0,0l0,0l0,0V27h40.2v4.4l0,0l0,0l0,0v4.4h49.6v-4.4l0,0l0,0l0,0V27h40.2v4.4l0,0l0,0l0,0v4.4
			h49.6v-4.4l0,0l0,0l0,0V27h40.2v4.4l0,0l0,0l0,0v4.4h49.6v-4.4l0,0l0,0l0,0V27h40.2v4.4l0,0l0,0l0,0v4.4H696"/>
		<path id="path6540" inkscape:connector-curvature="0" inkscape:label="part" class="st0" d="M696,35.8v37.1h-4.4l0,0l0,0l0,0h-4.4
			V112h4.4l0,0l0,0l0,0h4.4v37.1"/>
		<path id="path6542" inkscape:connector-curvature="0" inkscape:label="part" class="st0" d="M696,149.2h-49.9v4.4l0,0l0,0l0,0v4.4
			h-40.2v-4.4l0,0l0,0l0,0v-4.4h-49.6v4.4l0,0l0,0l0,0v4.4h-40.2v-4.4l0,0l0,0l0,0v-4.4h-49.6v4.4l0,0l0,0l0,0v4.4h-40.2v-4.4l0,0
			l0,0l0,0v-4.4h-49.6v4.4l0,0l0,0l0,0v4.4h-40.2v-4.4l0,0l0,0l0,0v-4.4h-49.6v4.4l0,0l0,0l0,0v4.4h-40.2v-4.4l0,0l0,0l0,0v-4.4
			h-49.9"/>
		<path id="path6544" inkscape:connector-curvature="0" inkscape:label="part" class="st0" d="M196.6,149.2v-37.1h4.4l0,0l0,0l0,0
			h4.4V72.9H201l0,0l0,0l0,0h-4.4V35.8"/>
	</g>
</g>
<g id="g5066" inkscape:groupmode="layer" inkscape:label="newlayer">
</g>
<g id="g6548" inkscape:groupmode="layer" inkscape:label="newlayer">
</g>
<g>
	<path d="M1044.5,260.8l-0.3,20.4c-30,22.7-40.6,62.7-26.1,97.4l-9.9,17.8l20.4,0.3c22.7,30,62.7,40.6,97.4,26.1l17.8,9.9l0.3-20.4
		c30-22.7,40.6-62.7,26.1-97.4l9.9-17.8l-20.4-0.3c-22.7-30-62.7-40.7-97.3-26.1 M1123,282.9l13.6,23.6l-7.9,0.5h-0.1h-0.1
		l-7.9-13.7l-10.9-2.9l2.8-10.4L1123,282.9z M1163.4,306.8l-18.4,27.8l-14.9-25.8L1163.4,306.8z M1132.5,379.1l-7-12.2l6.1-22.8
		l-24.7-6.6l8.9,15.4l-6,22.4l7.9,13.7l-13.3,7.7l-42.5-11.5l12.2-7l22.8,6.1l6.5-24.7l-15.4,8.9l-22.4-6l-13.7,7.9l-7.7-13.3
		l11.4-42.6l7,12.2l-6.1,22.8l24.6,6.6l-8.9-15.4l6-22.4l-7.9-13.7l13.3-7.7l42.6,11.4l-12.2,7.1l-22.8-6.1l-6.7,24.6l15.6-9l22.4,6
		l13.7-7.9l7.7,13.3L1132.5,379.1z M1133.8,379.7l0.1,0.3l-0.2,0.1L1133.8,379.7z M1119,388.2l-7.6-13.2l6-22.4l-7.5-13l20.2,5.4
		l-6,22l7.9,13.7L1119,388.2z M1132.2,382.7l2,33.3l-27.9-18.4L1132.2,382.7z M1102.9,398.1l-12.6,7.3l-22-5.9l-7.3-12.6
		L1102.9,398.1z M1060.2,384.6l-7.5-13.1l13.2-7.6l22.4,6l13-7.5l-5.3,20.2l-22-5.9L1060.2,384.6z M1042.9,355.4l-7.3-12.6l5.9-22
		l12.6-7.3L1042.9,355.4z M1069.4,305.3l7.6,13.2l-6,22.4l7.5,13l-20.1-5.4l5.9-22l-7.9-13.7L1069.4,305.3z M1056.1,310.7l-2-33.3
		l27.9,18.4L1056.1,310.7z M1128.1,308.9l7.5,13l-13.2,7.6l-22.4-6l-13,7.5l5.5-20.1l22,5.9L1128.1,308.9z M1145.4,338l7.3,12.6
		l-2.8,10.5l-0.3,0.9l-2.8,10.5l-12.6,7.3L1145.4,338z M1145,337.9l0.1-0.4l0.1,0.2L1145,337.9z M1085.5,295.4l12.6-7.3l10.5,2.8
		l0.9,0.2l10.5,2.8l7.3,12.6L1085.5,295.4z M1101.1,277l10.5,2.8l-2.7,10.3l-10.9-2.9l-13.7,7.9V295l-6.7-4.4L1101.1,277z
		 M1045.1,280.4l0.3-18.2l15.9,8.8l24.5,13.7l-9.3,5.3l-24.4-16.1l1.7,29.3l-9.3,5.3L1045.1,280.4z M1030.3,317.8l23.6-13.6l0.5,7.9
		h0.1v0.1l0.1,0.1l-13.8,8l-2.9,10.9l-10.4-2.8L1030.3,317.8z M1024.3,339.9L1024.3,339.9l2.9-10.6l10.3,2.8l-2.9,10.9l7.9,13.7
		h-0.1l-4.4,6.7L1024.3,339.9z M1043.3,358.9l14.9,25.9l-33.4,2L1043.3,358.9z M1056,396.3l-28.1-0.4l-18.2-0.3l8.8-15.9l13.7-24.5
		l5.4,9.3l-16.1,24.4l29.2-1.8L1056,396.3z M1065.4,410.5l-13.6-23.6h-0.2l0.2-0.1l0.1,0.1l7.7-0.5v-0.1h0.1l0.2-0.1l8,13.8
		l10.9,2.9l-2.7,10.3L1065.4,410.5z M1076.8,413.7l2.8-10.4l10.9,2.9l13.7-7.9l0.1,0.1l6.7,4.4l-23.6,13.6L1076.8,413.7z
		 M1143.2,413l-0.3,18.2l-15.9-8.8l-24.5-13.6l9.3-5.3l24.4,16.1l-1.8-29.2l9.3-5.3L1143.2,413z M1158.1,375.7l-23.6,13.6l-0.5-7.9
		l-0.1,0.1v-0.1v-0.1v-0.1l13.7-7.9l2.9-10.9l10.3,2.8L1158.1,375.7z M1163.9,353.6l-2.8,10.5l-10.4-2.8l2.9-10.9l-7.9-13.7v-0.1
		l4.4-6.7L1163.9,353.6z M1156.2,338.4l-5.3-9.3l16.1-24.4l-29.2,1.8l-5.4-9.3l28.1,0.4l18.2,0.3l-8.8,15.9L1156.2,338.4z"/>
	<ellipse transform="matrix(0.866 -0.5 0.5 0.866 -50.9264 569.4837)" cx="1037.2" cy="379.8" rx="2.7" ry="2.7"/>
	<circle cx="1126.8" cy="403.8" r="2.7"/>
	<ellipse transform="matrix(0.866 -0.5 0.5 0.866 -2.889 569.4236)" cx="1061.1" cy="290.1" rx="2.7" ry="2.7"/>
	<ellipse transform="matrix(0.866 -0.5 0.5 0.866 -2.8521 617.5208)" cx="1150.9" cy="314.1" rx="2.7" ry="2.7"/>
	<path d="M1091.2,342.2c-2.6,1.5-3.6,4.8-2,7.5c1.5,2.7,4.8,3.6,7.5,2c2.6-1.5,3.6-4.8,2-7.5S1093.8,340.7,1091.2,342.2z
		 M1094.3,350.9c-2.2-0.2-3.8-2.2-3.7-4.4c0-0.7,1.3-0.6,1.1,0.2c-0.1,1.6,1,3,2.6,3.1C1095.1,349.8,1095,350.9,1094.3,350.9z"/>
</g>
<g id="Right">
	<g>
		<path d="M755.4,248.4h15.9v15.9C762.5,264.3,755.4,257.2,755.4,248.4z"/>
		<path d="M787.2,248.4h-15.9v-15.9C780.1,232.5,787.2,239.6,787.2,248.4z"/>
		<path d="M755.4,216.6h15.9v15.9C762.5,232.5,755.4,225.4,755.4,216.6z"/>
		<path d="M787.2,216.6h-15.9v-15.9C780.1,200.7,787.2,207.8,787.2,216.6z"/>
		<path d="M755.4,200.7h15.9v15.9C762.5,216.6,755.4,209.5,755.4,200.7z"/>
		<path d="M787.2,200.7h-15.9v-15.9C780.1,184.8,787.2,191.9,787.2,200.7z"/>
		<path d="M755.4,184.8h15.9v15.9C762.5,200.7,755.4,193.6,755.4,184.8z"/>
		<path d="M787.2,184.8h-15.9v-15.9C780.1,168.9,787.2,176,787.2,184.8z"/>
		<path d="M755.4,232.5h15.9v15.9C762.5,248.4,755.4,241.3,755.4,232.5z"/>
		<path d="M787.2,232.5h-15.9v-15.9C780.1,216.6,787.2,223.7,787.2,232.5z"/>
	</g>
	<g>
		<path d="M755.4,336h15.9v15.9C762.5,351.9,755.4,344.7,755.4,336z"/>
		<path d="M787.2,336h-15.9v-16C780.1,320,787.2,327.2,787.2,336z"/>
		<path d="M755.4,304.1h15.9V320C762.5,320,755.4,312.9,755.4,304.1z"/>
		<path d="M787.2,304.1h-15.9v-15.9C780.1,288.2,787.2,295.3,787.2,304.1z"/>
		<path d="M755.4,288.2h15.9v15.9C762.5,304.1,755.4,297,755.4,288.2z"/>
		<path d="M787.2,288.2h-15.9v-15.9C780.1,272.3,787.2,279.4,787.2,288.2z"/>
		<path d="M755.4,272.3h15.9v15.9C762.5,288.2,755.4,281.1,755.4,272.3z"/>
		<path d="M787.2,272.3h-15.9v-15.9C780.1,256.4,787.2,263.5,787.2,272.3z"/>
		<path d="M755.4,320h15.9v16C762.5,336,755.4,328.8,755.4,320z"/>
		<path d="M787.2,320h-15.9v-15.9C780.1,304.1,787.2,311.2,787.2,320z"/>
	</g>
	<g>
		<path d="M755.4,423.2h15.9v15.9C762.5,439.1,755.4,431.9,755.4,423.2z"/>
		<path d="M787.2,423.2h-15.9v-15.9C780.1,407.2,787.2,414.4,787.2,423.2z"/>
		<path d="M755.4,391.3h15.9v15.9C762.5,407.2,755.4,400.1,755.4,391.3z"/>
		<path d="M787.2,391.3h-15.9v-15.9C780.1,375.4,787.2,382.5,787.2,391.3z"/>
		<path d="M755.4,375.4h15.9v15.9C762.5,391.3,755.4,384.2,755.4,375.4z"/>
		<path d="M787.2,375.4h-15.9v-15.9C780.1,359.5,787.2,366.6,787.2,375.4z"/>
		<path d="M755.4,359.5h15.9v15.9C762.5,375.4,755.4,368.3,755.4,359.5z"/>
		<path d="M787.2,359.5h-15.9v-15.9C780.1,343.6,787.2,350.7,787.2,359.5z"/>
		<path d="M755.4,407.2h15.9v15.9C762.5,423.2,755.4,416,755.4,407.2z"/>
		<path d="M787.2,407.2h-15.9v-15.9C780.1,391.3,787.2,398.5,787.2,407.2z"/>
	</g>
	<g>
		<path d="M755.4,510.7h15.9v15.9C762.5,526.6,755.4,519.5,755.4,510.7z"/>
		<path d="M787.2,510.7h-15.9v-15.9C780.1,494.8,787.2,501.9,787.2,510.7z"/>
		<path d="M755.4,478.9h15.9v15.9C762.5,494.8,755.4,487.6,755.4,478.9z"/>
		<path d="M787.2,478.9h-15.9V463C780.1,462.9,787.2,470.1,787.2,478.9z"/>
		<path d="M755.4,462.9h15.9v15.9C762.5,478.9,755.4,471.7,755.4,462.9z"/>
		<path d="M787.2,462.9h-15.9V447C780.1,447,787.2,454.2,787.2,462.9z"/>
		<path d="M755.4,447h15.9v15.9C762.5,462.9,755.4,455.8,755.4,447z"/>
		<path d="M787.2,447h-15.9v-15.9C780.1,431.1,787.2,438.2,787.2,447z"/>
		<path d="M755.4,494.8h15.9v15.9C762.5,510.7,755.4,503.6,755.4,494.8z"/>
		<path d="M787.2,494.8h-15.9v-15.9C780.1,478.9,787.2,486,787.2,494.8z"/>
	</g>
</g>
<g id="Bottom">
	<g>
		<path d="M290.7,618.6v-17.2h17.2C307.9,610.9,300.2,618.6,290.7,618.6z"/>
		<path d="M290.7,584.2v17.2h-17.2C273.4,591.9,281.2,584.2,290.7,584.2z"/>
		<path d="M256.2,618.6v-17.2h17.2C273.4,610.9,265.7,618.6,256.2,618.6z"/>
		<path d="M256.2,584.2v17.2H239C239,591.9,246.7,584.2,256.2,584.2z"/>
		<path d="M239,618.6v-17.2h17.2C256.2,610.9,248.5,618.6,239,618.6z"/>
		<path d="M239,584.2v17.2h-17.2C221.8,591.9,229.5,584.2,239,584.2z"/>
		<path d="M221.8,618.6v-17.2H239C239,610.9,231.3,618.6,221.8,618.6z"/>
		<path d="M221.8,584.2v17.2h-17.2C204.6,591.9,212.3,584.2,221.8,584.2z"/>
		<path d="M273.4,618.6v-17.2h17.2C290.7,610.9,283,618.6,273.4,618.6z"/>
		<path d="M273.4,584.2v17.2h-17.2C256.2,591.9,263.9,584.2,273.4,584.2z"/>
	</g>
	<g>
		<path d="M385.4,618.6v-17.2h17.2C402.6,610.9,394.9,618.6,385.4,618.6z"/>
		<path d="M385.4,584.2v17.2h-17.2C368.2,591.9,375.9,584.2,385.4,584.2z"/>
		<path d="M350.9,618.6v-17.2h17.2C368.2,610.9,360.5,618.6,350.9,618.6z"/>
		<path d="M350.9,584.2v17.2h-17.2C333.7,591.9,341.4,584.2,350.9,584.2z"/>
		<path d="M333.7,618.6v-17.2h17.2C350.9,610.9,343.2,618.6,333.7,618.6z"/>
		<path d="M333.7,584.2v17.2h-17.2C316.5,591.9,324.2,584.2,333.7,584.2z"/>
		<path d="M316.5,618.6v-17.2h17.2C333.7,610.9,326,618.6,316.5,618.6z"/>
		<path d="M316.5,584.2v17.2h-17.2C299.3,591.9,307,584.2,316.5,584.2z"/>
		<path d="M368.2,618.6v-17.2h17.2C385.4,610.9,377.7,618.6,368.2,618.6z"/>
		<path d="M368.2,584.2v17.2H351C350.9,591.9,358.7,584.2,368.2,584.2z"/>
	</g>
	<g>
		<path d="M479.8,618.6v-17.2H497C497,610.9,489.3,618.6,479.8,618.6z"/>
		<path d="M479.8,584.2v17.2h-17.2C462.6,591.9,470.3,584.2,479.8,584.2z"/>
		<path d="M445.3,618.6v-17.2h17.2C462.6,610.9,454.8,618.6,445.3,618.6z"/>
		<path d="M445.3,584.2v17.2h-17.2C428.1,591.9,435.8,584.2,445.3,584.2z"/>
		<path d="M428.1,618.6v-17.2h17.2C445.3,610.9,437.6,618.6,428.1,618.6z"/>
		<path d="M428.1,584.2v17.2h-17.2C410.9,591.9,418.6,584.2,428.1,584.2z"/>
		<path d="M410.9,618.6v-17.2h17.2C428.1,610.9,420.4,618.6,410.9,618.6z"/>
		<path d="M410.9,584.2v17.2h-17.2C393.7,591.9,401.4,584.2,410.9,584.2z"/>
		<path d="M462.6,618.6v-17.2h17.2C479.8,610.9,472.1,618.6,462.6,618.6z"/>
		<path d="M462.6,584.2v17.2h-17.2C445.3,591.9,453,584.2,462.6,584.2z"/>
	</g>
	<g>
		<path d="M574.5,618.6v-17.2h17.2C591.7,610.9,584,618.6,574.5,618.6z"/>
		<path d="M574.5,584.2v17.2h-17.2C557.3,591.9,565,584.2,574.5,584.2z"/>
		<path d="M540.1,618.6v-17.2h17.2C557.3,610.9,549.6,618.6,540.1,618.6z"/>
		<path d="M540.1,584.2v17.2h-17.2C522.8,591.9,530.5,584.2,540.1,584.2z"/>
		<path d="M522.8,618.6v-17.2H540C540.1,610.9,532.3,618.6,522.8,618.6z"/>
		<path d="M522.8,584.2v17.2h-17.2C505.6,591.9,513.3,584.2,522.8,584.2z"/>
		<path d="M505.6,618.6v-17.2h17.2C522.8,610.9,515.1,618.6,505.6,618.6z"/>
		<path d="M505.6,584.2v17.2h-17.2C488.4,591.9,496.1,584.2,505.6,584.2z"/>
		<path d="M557.3,618.6v-17.2h17.2C574.5,610.9,566.8,618.6,557.3,618.6z"/>
		<path d="M557.3,584.2v17.2h-17.2C540.1,591.9,547.8,584.2,557.3,584.2z"/>
	</g>
	<g>
		<path d="M669.2,618.6v-17.2h17.2C686.4,610.9,678.7,618.6,669.2,618.6z"/>
		<path d="M669.2,584.2v17.2H652C652,591.9,659.7,584.2,669.2,584.2z"/>
		<path d="M634.8,618.6v-17.2H652C652,610.9,644.3,618.6,634.8,618.6z"/>
		<path d="M634.8,584.2v17.2h-17.2C617.6,591.9,625.3,584.2,634.8,584.2z"/>
		<path d="M617.6,618.6v-17.2h17.2C634.8,610.9,627.1,618.6,617.6,618.6z"/>
		<path d="M617.6,584.2v17.2h-17.2C600.3,591.9,608,584.2,617.6,584.2z"/>
		<path d="M600.3,618.6v-17.2h17.2C617.6,610.9,609.8,618.6,600.3,618.6z"/>
		<path d="M600.3,584.2v17.2h-17.2C583.1,591.9,590.8,584.2,600.3,584.2z"/>
		<path d="M652,618.6v-17.2h17.2C669.2,610.9,661.5,618.6,652,618.6z"/>
		<path d="M652,584.2v17.2h-17.2C634.8,591.9,642.5,584.2,652,584.2z"/>
	</g>
</g>
<g id="Left">
	<g>
		<path d="M103.8,244.5h15.9v15.9C110.9,260.4,103.8,253.3,103.8,244.5z"/>
		<path d="M135.6,244.5h-15.9v-15.9C128.5,228.6,135.6,235.7,135.6,244.5z"/>
		<path d="M103.8,212.7h15.9v15.9C110.9,228.6,103.8,221.5,103.8,212.7z"/>
		<path d="M135.6,212.7h-15.9v-15.9C128.5,196.8,135.6,203.9,135.6,212.7z"/>
		<path d="M103.8,196.8h15.9v15.9C110.9,212.7,103.8,205.6,103.8,196.8z"/>
		<path d="M135.6,196.8h-15.9v-15.9C128.5,180.9,135.6,188,135.6,196.8z"/>
		<path d="M103.8,180.9h15.9v15.9C110.9,196.8,103.8,189.6,103.8,180.9z"/>
		<path d="M135.6,180.9h-15.9V165C128.5,164.9,135.6,172.1,135.6,180.9z"/>
		<path d="M103.8,228.6h15.9v15.9C110.9,244.5,103.8,237.4,103.8,228.6z"/>
		<path d="M135.6,228.6h-15.9v-15.9C128.5,212.7,135.6,219.8,135.6,228.6z"/>
	</g>
	<g>
		<path d="M103.8,332h15.9v15.9C110.9,347.9,103.8,340.8,103.8,332z"/>
		<path d="M135.6,332h-15.9v-15.9C128.5,316.1,135.6,323.2,135.6,332z"/>
		<path d="M103.8,300.2h15.9v15.9C110.9,316.1,103.8,309,103.8,300.2z"/>
		<path d="M135.6,300.2h-15.9v-15.9C128.5,284.3,135.6,291.4,135.6,300.2z"/>
		<path d="M103.8,284.3h15.9v15.9C110.9,300.2,103.8,293.1,103.8,284.3z"/>
		<path d="M135.6,284.3h-15.9v-15.9C128.5,268.4,135.6,275.5,135.6,284.3z"/>
		<path d="M103.8,268.4h15.9v15.9C110.9,284.3,103.8,277.2,103.8,268.4z"/>
		<path d="M135.6,268.4h-15.9v-15.9C128.5,252.5,135.6,259.6,135.6,268.4z"/>
		<path d="M103.8,316.1h15.9V332C110.9,332,103.8,324.9,103.8,316.1z"/>
		<path d="M135.6,316.1h-15.9v-15.9C128.5,300.2,135.6,307.3,135.6,316.1z"/>
	</g>
	<g>
		<path d="M103.8,419.2h15.9v16C110.9,435.2,103.8,428,103.8,419.2z"/>
		<path d="M135.6,419.2h-15.9v-15.9C128.5,403.3,135.6,410.5,135.6,419.2z"/>
		<path d="M103.8,387.4h15.9v15.9C110.9,403.3,103.8,396.2,103.8,387.4z"/>
		<path d="M135.6,387.4h-15.9v-15.9C128.5,371.5,135.6,378.6,135.6,387.4z"/>
		<path d="M103.8,371.5h15.9v15.9C110.9,387.4,103.8,380.3,103.8,371.5z"/>
		<path d="M135.6,371.5h-15.9v-15.9C128.5,355.6,135.6,362.7,135.6,371.5z"/>
		<path d="M103.8,355.6h15.9v15.9C110.9,371.5,103.8,364.4,103.8,355.6z"/>
		<path d="M135.6,355.6h-15.9v-15.9C128.5,339.7,135.6,346.8,135.6,355.6z"/>
		<path d="M103.8,403.3h15.9v15.9C110.9,419.2,103.8,412.1,103.8,403.3z"/>
		<path d="M135.6,403.3h-15.9v-15.9C128.5,387.4,135.6,394.5,135.6,403.3z"/>
	</g>
	<g>
		<path d="M103.8,506.8h15.9v15.9C110.9,522.7,103.8,515.6,103.8,506.8z"/>
		<path d="M135.6,506.8h-15.9v-15.9C128.5,490.9,135.6,498,135.6,506.8z"/>
		<path d="M103.8,474.9h15.9v15.9C110.9,490.9,103.8,483.7,103.8,474.9z"/>
		<path d="M135.6,474.9h-15.9V459C128.5,459,135.6,466.1,135.6,474.9z"/>
		<path d="M103.8,459h15.9v15.9C110.9,474.9,103.8,467.8,103.8,459z"/>
		<path d="M135.6,459h-15.9v-15.9C128.5,443.1,135.6,450.2,135.6,459z"/>
		<path d="M103.8,443.1h15.9V459C110.9,459,103.8,451.9,103.8,443.1z"/>
		<path d="M135.6,443.1h-15.9v-15.9C128.5,427.2,135.6,434.3,135.6,443.1z"/>
		<path d="M103.8,490.9h15.9v15.9C110.9,506.8,103.8,499.6,103.8,490.9z"/>
		<path d="M135.6,490.9h-15.9V475C128.5,474.9,135.6,482.1,135.6,490.9z"/>
	</g>
</g>
<g id="Top">
	<g>
		<path d="M284.5,106.9V91h15.9C300.5,99.8,293.3,106.9,284.5,106.9z"/>
		<path d="M284.5,75.1V91h-15.9C268.6,82.2,275.8,75.1,284.5,75.1z"/>
		<path d="M252.7,106.9V91h15.9C268.6,99.8,261.5,106.9,252.7,106.9z"/>
		<path d="M252.7,75.1V91h-15.9C236.8,82.2,243.9,75.1,252.7,75.1z"/>
		<path d="M236.8,106.9V91h15.9C252.7,99.8,245.6,106.9,236.8,106.9z"/>
		<path d="M236.8,75.1V91h-15.9C220.9,82.2,228,75.1,236.8,75.1z"/>
		<path d="M220.9,106.9V91h15.9C236.8,99.8,229.7,106.9,220.9,106.9z"/>
		<path d="M220.9,75.1V91H205C205,82.2,212.1,75.1,220.9,75.1z"/>
		<path d="M268.6,106.9V91h15.9C284.5,99.8,277.4,106.9,268.6,106.9z"/>
		<path d="M268.6,75.1V91h-15.9C252.7,82.2,259.8,75.1,268.6,75.1z"/>
	</g>
	<g>
		<path d="M670.9,106.9V91h15.9C686.9,99.8,679.7,106.9,670.9,106.9z"/>
		<path d="M670.9,75.1V91H655C655,82.2,662.2,75.1,670.9,75.1z"/>
		<path d="M639.1,106.9V91H655C655,99.8,647.9,106.9,639.1,106.9z"/>
		<path d="M639.1,75.1V91h-15.9C623.2,82.2,630.3,75.1,639.1,75.1z"/>
		<path d="M623.2,106.9V91h15.9C639.1,99.8,632,106.9,623.2,106.9z"/>
		<path d="M623.2,75.1V91h-15.9C607.3,82.2,614.4,75.1,623.2,75.1z"/>
		<path d="M607.3,106.9V91h15.9C623.2,99.8,616.1,106.9,607.3,106.9z"/>
		<path d="M607.3,75.1V91h-15.9C591.4,82.2,598.5,75.1,607.3,75.1z"/>
		<path d="M655,106.9V91h15.9C670.9,99.8,663.8,106.9,655,106.9z"/>
		<path d="M655,75.1V91h-15.9C639.1,82.2,646.2,75.1,655,75.1z"/>
	</g>
	<g>
		<path d="M380.2,92.3c-0.8,0.3-1.7,0.4-2.8,0.5c-1.1,0.1-1.8,0.1-2.1,0.1c0,1.3-0.1,2.8-0.3,4.4s-0.2,3-0.3,4l-0.2,2l-0.1,2
			l-0.4,4.9c-0.2,2.2-0.9,3.3-2.1,3.3c-0.5,0-0.9-0.5-1.4-1.6c-0.4-1.1-0.7-2-0.7-2.6c0-0.2,0.2-0.5,0.5-1s0.6-1.1,0.6-1.9
			c0.2-1.2,0.4-3.2,0.6-5.9c0.2-2.8,0.4-5.1,0.4-7c-1.7,0.1-3.4,0.3-5.4,0.6c-0.9,0.1-2.8,0.3-5.7,0.6c-3,0.3-5.3,0.5-7,0.6
			c-0.2,2.8-0.4,6.2-0.6,10.3c-0.2,4-0.3,6.5-0.3,7.4c0,0.3,0.1,0.8,0.2,1.3c0.1,0.6,0.2,1,0.2,1.3c0,0.4-0.3,0.8-0.9,1.1
			c-0.6,0.4-1,0.6-1.4,0.6s-0.8-0.3-1.1-0.8c-0.3-0.6-0.4-1.2-0.4-1.9c0-0.4,0-1,0.1-1.9s0.1-1.6,0.2-2.3c0.2-1.1,0.3-2.1,0.3-2.8
			c0.2-2.5,0.4-4.9,0.5-7.3c0.1-2.3,0.2-3.9,0.3-4.7c-2.7,0.5-5.2,0.7-7.6,0.7c-0.8,0-1.5-0.2-2.1-0.6s-0.9-1-0.9-1.8
			c0-0.6,0.1-1,0.4-1.2c0.3-0.3,0.8-0.4,1.7-0.4l3.4,0.1c2.2,0.1,4,0.1,5.4,0.1c0.2-3.6,0.3-6.5,0.3-8.7c0-4.9,0-9.4-0.1-13.3v-2.4
			c0-0.6,0.2-1.2,0.7-1.6s1.1-0.6,1.7-0.6c0.5,0,0.8,0.4,1,1.1s0.3,1.5,0.3,2.4s-0.1,2.8-0.3,5.7c-0.3,4.9-0.4,7.5-0.4,7.8l-0.3,9.1
			c3.6-0.1,9.6-0.6,18.2-1.7c0.2-1.2,0.5-4.5,0.9-9.7c0.2-2.8,0.3-4.8,0.4-6.1l0.4-5c0.6-6.3,0.8-10.2,0.8-11.7c0-0.6,0.2-1,0.6-1.3
			s0.9-0.5,1.5-0.5c0.8,0,1.1,0.7,1.1,2.2c0,0.9-0.2,3.4-0.6,7.5c-0.5,5.3-0.7,8.2-0.8,8.8c-0.3,3.3-0.5,6.4-0.7,9.4s-0.4,5-0.5,6
			c0.8-0.1,1.4-0.3,2-0.6c0.8-0.3,1.4-0.4,1.8-0.4s0.9,0.3,1.5,0.8s0.8,0.9,0.8,1.1C381.7,91.5,381.2,92,380.2,92.3z"/>
		<path d="M393.5,117.8c-1.3,1.8-3.1,2.7-5.2,2.7c-1.8,0-3.3-0.3-4.6-0.9c-1.3-0.6-2.2-1.4-2.9-2.2s-1-1.7-1-2.4
			c0-0.3,0.1-0.7,0.4-1s0.5-0.5,0.7-0.5c0.3,0,0.5,0.1,0.6,0.3c0.1,0.2,0.3,0.4,0.4,0.5c0.9,1.1,1.7,2,2.5,2.6s1.8,0.9,3,0.9
			c1.9,0,3.2-0.6,3.9-1.9c0.7-1.3,1.1-3.2,1.1-5.8c0-1.4-0.1-3.2-0.3-5.3c-0.2-2.1-0.4-4.1-0.6-6c0-0.6-0.1-1.2-0.2-1.8
			c-0.1-0.6-0.1-1.2-0.2-1.8c-0.3-2.9-0.7-6.3-1.3-10.1c-0.4-2.8-0.6-4.6-0.6-5.4c0-0.6,0.1-1,0.2-1.2s0.5-0.3,1-0.3
			c0.8,0,1.4,0.5,1.8,1.6c0.4,1,0.7,2.6,0.9,4.8c0.2,2.6,0.6,6.2,1.1,11c0.9,7.8,1.3,12.5,1.3,14.1
			C395.5,113.4,394.8,116,393.5,117.8z M391.2,66.6c-0.8,0-1.5-0.2-2.2-0.7c-0.6-0.5-1.1-1-1.5-1.6c-0.4-0.6-0.6-1-0.6-1.3
			c0-0.5,0.2-0.9,0.7-1.3c0.4-0.4,0.9-0.6,1.4-0.6c0.3,0,0.6,0.1,0.8,0.4c0.2,0.3,0.5,0.7,0.8,1.2c0.3,0.6,0.6,1,0.9,1.3
			c0.1,0.1,0.4,0.4,0.8,0.8s0.6,0.7,0.6,0.8C392.9,66.2,392.3,66.6,391.2,66.6z"/>
		<path d="M429.4,105c0.3,0.3,0.4,0.6,0.4,0.8c0,0.5-0.2,1.1-0.6,1.8c-0.4,0.7-0.9,1-1.3,1c-0.7,0-1.3-0.4-1.7-1.3
			c-0.4-0.9-0.6-1.9-0.6-3.1c0-1,0.1-4.1,0.2-9.2l0.1-2.4c0-1-0.3-1.7-0.8-2.1c-1.9,3.2-3.7,6-5.4,8.4c-1.7,2.4-3.8,4.6-6.3,6.7
			c-2.6,2.1-5.2,3.2-8,3.2c-1.4,0-2.4-0.4-3.2-1.3c-0.7-0.8-1.1-2-1.1-3.3c0-1.7,0.8-4,2.3-7s3.5-6,5.9-9s4.8-5.5,7.1-7.5
			c1.6-1.3,2.8-2.1,3.8-2.6c0.9-0.4,1.8-0.7,2.5-0.7s1.4,0.2,2.1,0.6s1.3,1,1.8,1.8s0.8,1.6,0.8,2.6c0,1.3-0.4,2.6-1.1,3.8l1.1-0.3
			c0.5,0,0.7,0.6,0.8,1.7c0,0.7,0.1,2.1,0.2,4.1c0.1,2.1,0.1,3.8,0.2,5.2c0,1.4,0.1,2.8,0.1,4.1c0,1.3,0.1,2.4,0.1,3.1
			C428.9,104.3,429.1,104.7,429.4,105z M413,102.6c2.1-1.7,4-3.7,5.7-6.1s3.5-5.3,5.6-8.7c0.5-1.3,0.8-2.7,0.8-4.1
			c0-0.9-0.3-1.7-0.8-2.3c-0.5-0.7-1.2-1-2.1-1c-1.1,0-2.4,0.7-4.1,2.2c-1.9,1.6-3.9,3.8-6.1,6.5c-2.1,2.7-3.9,5.4-5.3,8
			s-2.1,4.7-2.1,6.3c0,1.3,0.6,1.9,1.8,1.9C408.7,105.2,410.9,104.3,413,102.6z M425.4,68.2c-1.4,1.5-2.8,2.8-4.4,4.1
			c-1.6,1.3-2.7,1.9-3.2,1.9c-0.4,0-0.7-0.1-0.9-0.3c-0.2-0.2-0.4-0.5-0.4-0.8c0-0.2,0.7-1,2.1-2.3c1.6-1.4,2.8-2.7,3.6-3.6
			c0.6-0.9,1.1-1.7,1.5-2.3c0.5-0.7,0.8-1.2,1-1.4s0.4-0.3,0.7-0.3c0.4,0,0.9,0.2,1.3,0.7c0.5,0.5,0.7,0.9,0.7,1.3
			C427.5,65.8,426.8,66.8,425.4,68.2z"/>
		<path d="M441.6,107.4c-0.6,0.3-1.2,0.4-1.8,0.4c-0.5,0-1-0.6-1.4-1.8c-0.4-1.2-0.7-3.1-0.7-5.5c0-4.8,0.1-10.6,0.2-17.4
			s0.2-11.9,0.3-15.4c0-1.2,0.3-2.4,0.7-3.4c0.4-1.1,1.1-1.6,2.1-1.6c0.3,0,0.6,0.2,0.7,0.5c0.1,0.4,0.2,1.1,0.2,2.1
			c0,0,0,0.2,0,0.4c0,0.2,0,0.6,0,1.2c-0.8,11.2-1.1,22.1-1.1,32.7c0,1.4,0.3,2.8,0.9,4.3s0.9,2.3,0.9,2.4
			C442.4,106.8,442.1,107.2,441.6,107.4z"/>
		<path d="M488.7,108.8c-0.3,0.4-0.8,0.5-1.3,0.5c-0.8,0-1.1-0.4-1.1-1.1c0-8.6-0.3-15.2-0.8-19.7c-0.6-4.6-1.5-6.9-2.9-6.9
			c-2.3,0-5.7,8-10.1,24v0.1c0,0.5-0.2,0.9-0.5,1.3s-0.8,0.5-1.3,0.5c-0.8,0-1.1-0.4-1.1-1.1c0-1.7,0.1-4.3,0.3-7.9
			c0.2-4,0.3-7.1,0.3-9.4c0-3.2-0.1-5.5-0.3-6.8c-0.2-1.3-0.6-2-1.2-2c-1.4,0-3.3,2.6-5.5,7.9s-4.5,11.5-7,18.7l-0.6,1.7
			c-0.2,0.4-0.4,0.8-0.7,1.1c-0.3,0.3-0.7,0.4-1,0.4c-0.5,0-0.9,0-1-0.1c-0.2-0.1-0.3-0.3-0.3-0.8c-0.2-2.1-0.4-4.9-0.5-8.4
			c-0.1-0.9-0.2-2.4-0.3-4.4c-0.4-7.2-0.8-12-1.1-14.6c-0.3-2.5-0.5-3.9-0.5-4.2c0-0.3,0.2-0.7,0.5-1.2s0.7-0.7,1-0.7
			c0.7,0,1.2,0.5,1.7,1.5c0.2,0.5,0.4,2.3,0.7,5.6c0.3,3.3,0.5,7.3,0.6,12.2l0.3,9.8c2.3-7.2,4.8-13.8,7.3-19.7s4.8-8.8,6.9-8.8
			c1.4,0,2.4,1,2.9,3.1c0.5,2,0.8,5,0.8,8.9c0,2,0,5-0.1,8.8l-0.1,2.9c1.7-6.1,3.5-11.2,5.2-15.3c1.7-4.1,3.5-6.2,5.2-6.2
			c4.4,0,6.6,9.7,6.6,29.1C489.2,108,489.1,108.4,488.7,108.8z"/>
		<path d="M523.7,105c0.3,0.3,0.4,0.6,0.4,0.8c0,0.5-0.2,1.1-0.6,1.8c-0.4,0.7-0.9,1-1.3,1c-0.7,0-1.3-0.4-1.7-1.3s-0.6-1.9-0.6-3.1
			c0-1,0.1-4.1,0.2-9.2l0.1-2.4c0-1-0.3-1.7-0.8-2.1c-1.9,3.2-3.7,6-5.4,8.4s-3.8,4.6-6.3,6.7c-2.6,2.1-5.2,3.2-8,3.2
			c-1.4,0-2.4-0.4-3.2-1.3c-0.7-0.8-1.1-2-1.1-3.3c0-1.7,0.8-4,2.3-7s3.5-6,5.9-9s4.8-5.5,7.1-7.5c1.6-1.3,2.8-2.1,3.8-2.6
			c0.9-0.4,1.8-0.7,2.5-0.7s1.4,0.2,2.1,0.6c0.7,0.4,1.3,1,1.8,1.8s0.8,1.6,0.8,2.6c0,1.3-0.4,2.6-1.1,3.8l1.1-0.3
			c0.5,0,0.7,0.6,0.8,1.7c0,0.7,0.1,2.1,0.2,4.1c0.1,2.1,0.1,3.8,0.2,5.2c0,1.4,0.1,2.8,0.1,4.1c0,1.3,0.1,2.4,0.1,3.1
			C523.2,104.3,523.4,104.7,523.7,105z M507.3,102.6c2.1-1.7,4-3.7,5.7-6.1s3.5-5.3,5.6-8.7c0.5-1.3,0.8-2.7,0.8-4.1
			c0-0.9-0.3-1.7-0.8-2.3c-0.5-0.7-1.2-1-2.1-1c-1.1,0-2.4,0.7-4.1,2.2c-1.9,1.6-3.9,3.8-6.1,6.5c-2.1,2.7-3.9,5.4-5.3,8
			s-2.1,4.7-2.1,6.3c0,1.3,0.6,1.9,1.8,1.9C502.9,105.2,505.2,104.3,507.3,102.6z"/>
		<path d="M551.6,82.6c-0.5,0.5-1,0.7-1.4,0.7c-0.3,0-0.6-0.1-0.9-0.4c-0.3-0.3-0.6-0.6-0.9-1.1c-0.3-0.4-0.7-0.8-1.2-1.1
			c-0.5-0.3-1-0.4-1.5-0.4c-1.2,0-2.9,1.6-5,4.9s-4.1,7.3-6.1,12.3c0,1,0.1,2.2,0.2,3.7c0.1,1.5,0.2,2.6,0.2,3.3l0.2,2.6
			c0,0.6-0.1,1.1-0.4,1.6c-0.3,0.4-0.7,0.7-1.4,0.7s-1.2-1-1.4-2.9s-0.3-4.8-0.4-8.5c0-0.9-0.1-2.3-0.1-4s-0.1-3.8-0.2-6.3
			c-0.1-3.7-0.2-6.3-0.2-7.8c0-1,0.6-1.5,1.8-1.5c0.7,0,1.2,0.3,1.3,0.9s0.2,1.8,0.2,3.5V93c1.3-3.3,2.7-6.1,4.1-8.5
			c1.5-2.4,2.9-4.2,4.4-5.5c1.4-1.3,2.7-1.9,3.8-1.9c0.9,0,1.8,0.2,2.7,0.6s1.5,1,2,1.6c0.5,0.7,0.8,1.3,0.8,1.9
			C552.4,81.7,552.1,82.1,551.6,82.6z"/>
	</g>
</g>
</svg>
