<?xml version="1.0" encoding="utf-8"?>
<!-- Generator: Adobe Illustrator 24.0.2, SVG Export Plug-In . SVG Version: 6.00 Build 0)  -->
<svg version="1.1" id="Layer_1" xmlns="http://www.w3.org/2000/svg" xmlns:xlink="http://www.w3.org/1999/xlink" x="0px" y="0px"
	 viewBox="0 0 776.2 1103.8" style="enable-background:new 0 0 776.2 1103.8;" xml:space="preserve">
<style type="text/css">
	.st0{fill:none;stroke:#0000FF;stroke-width:0.2835;stroke-miterlimit:11.3386;}
	.st1{fill:#FFFFFF;stroke:#000000;stroke-miterlimit:10;}
</style>
<g id="Layer_1_1_">
	
		<g id="svg8" xmlns:cc="http://creativecommons.org/ns#" xmlns:dc="http://purl.org/dc/elements/1.1/" xmlns:inkscape="http://www.inkscape.org/namespaces/inkscape" xmlns:rdf="http://www.w3.org/1999/02/22-rdf-syntax-ns#" xmlns:sodipodi="http://sodipodi.sourceforge.net/DTD/sodipodi-0.dtd" xmlns:svg="http://www.w3.org/2000/svg">
		
			<sodipodi:namedview  bordercolor="#666666" borderopacity="1.0" id="base" inkscape:current-layer="layer1" inkscape:cx="400" inkscape:cy="674.28571" inkscape:document-units="mm" inkscape:pageopacity="0.0" inkscape:pageshadow="2" inkscape:window-height="1017" inkscape:window-maximized="1" inkscape:window-width="1920" inkscape:window-x="-8" inkscape:window-y="-8" inkscape:zoom="0.35" pagecolor="#ffffff" showgrid="false">
			</sodipodi:namedview>
		<g id="layer1" inkscape:groupmode="layer" inkscape:label="Layer 1">
			<g id="box" transform="translate(21.428571,-45.339286)">
				<path id="box-lid" inkscape:connector-curvature="0" class="st0" d="M122.7,87.2h17.1v-8.5h34.3v8.5h34.3v-8.5h34.3v8.5H277
					v-8.5h34.3v8.5h34.3v-8.5h34.3v8.5h34.3v-8.5h34.3v8.5h34.3v-8.5h34.3v8.5h17.1V102h8.5v29.5h-8.5V161h8.5v29.5h-8.5V220h8.5
					v29.5h-8.5V279h8.5v29.5h-8.5V338h8.5v29.5h-8.5V397h8.5v29.5h-8.5v14.8h-17.1v8.5h-34.3v-8.5h-34.3v8.5h-34.3v-8.5h-34.3v8.5
					h-34.3v-8.5h-34.3v8.5H277v-8.5h-34.3v8.5h-34.3v-8.5h-34.3v8.5h-34.3v-8.5h-17.1v-14.8h-8.5V397h8.5v-29.5h-8.5V338h8.5v-29.5
					h-8.5V279h8.5v-29.5h-8.5V220h8.5v-29.5h-8.5V161h8.5v-29.5h-8.5V102h8.5V87.2"/>
				<path id="box-longside1" inkscape:connector-curvature="0" class="st0" d="M114.2,450v-8.5h8.5 M542.3,441.5v16.8h-8.5v16.5h8.5
					v16.5h-8.5v16.6h8.5v16.5h-8.5v16.5h8.5v16.8h-25.6v-8.5h-34.3v8.5h-34.3v-8.5h-34.3v8.5h-34.3v-8.5h-34.3v8.5h-34.3v-8.5h-34.3
					v8.5h-34.3v-8.5H208v8.5h-34.3v-8.5h-34.3v8.5h-25.6v-16.8h8.5v-16.5h-8.5v-16.5h8.5v-16.5h-8.5v-16.5h8.5v-16.5h-8.5v-8.3"/>
				<path id="box-base" inkscape:connector-curvature="0" class="st0" d="M533.7,557.8v14.8h8.5v29.5h-8.5v29.5h8.5v29.5h-8.5v29.5
					h8.5v29.5h-8.5v29.5h8.5v29.5h-8.5v29.5h8.5v29.5h-8.5v29.5h8.5v29.5h-8.5v14.8h-17.1v8.5h-34.3v-8.5H448v8.5h-34.3v-8.5h-34.3
					v8.5h-34.3v-8.5h-34.3v8.5h-34.3v-8.5h-34.3v8.5h-34.3v-8.5h-34.3v8.5h-34.3v-8.5h-17.1v-14.8h-8.5v-29.5h8.5v-29.5h-8.5v-29.5
					h8.5v-29.5h-8.5v-29.5h8.5v-29.5h-8.5v-29.5h8.5v-29.5h-8.5v-29.5h8.5v-29.5h-8.5v-29.5h8.5v-14.8"/>
				<path id="box-longside2" inkscape:connector-curvature="0" class="st0" d="M114.2,920.6v-8.5h8.5 M542.3,912.1v16.8h-8.5v16.5
					h8.5v16.5h-8.5v16.5h8.5v16.5h-8.5v16.5h8.5v16.8h-25.6v-8.5h-34.3v8.5h-34.3v-8.5h-34.3v8.5h-34.3v-8.5h-34.3v8.5h-34.3v-8.5
					h-34.3v8.5h-34.3v-8.5H208v8.5h-34.3v-8.5h-34.3v8.5h-25.6v-16.8h8.5v-16.5h-8.5v-16.5h8.5v-16.5h-8.5v-16.5h8.5v-16.5h-8.5
					v-8.3"/>
				<path id="box-endface2" inkscape:connector-curvature="0" class="st0" d="M533.7,87.2h16.8v-8.5H567v8.5h16.5v-8.5H600v8.5h16.5
					v-8.5H633v8.5h16.8V102h-8.5v29.5h8.5V161h-8.5v29.5h8.5V220h-8.5v29.5h8.5V279h-8.5v29.5h8.5V338h-8.5v29.5h8.5V397h-8.5v29.5
					h8.5v14.8H633v8.5h-16.5v-8.5H600v8.5h-16.5v-8.5H567v8.5h-16.5v-8.5h-8.3h-8.5"/>
				<path id="box-endface1" inkscape:connector-curvature="0" class="st0" d="M542.3,557.8h8.3v-8.5h16.5v8.5h16.5v-8.5h16.5v8.5
					h16.5v-8.5h16.5v8.5h16.8v14.8h-8.5v29.5h8.5v29.5h-8.5v29.5h8.5v29.5h-8.5v29.5h8.5v29.5h-8.5v29.5h8.5v29.5h-8.5v29.5h8.5
					v29.5h-8.5v29.5h8.5v14.8h-16.8v8.5h-16.5v-8.5h-16.5v8.5h-16.5v-8.5h-16.5v8.5h-16.5v-8.5h-8.3h-8.5"/>
			</g>
		</g>
	</g>
</g>
<g>
	<g>
		<path class="st1" d="M366.5,181"/>
	</g>
	<g>
		<path d="M332.7,169L332.7,169L332.7,169L332.7,169z"/>
		<path d="M431.6,208.4l-1-0.6L407.7,194v-16.3L391,161h-16.3l-13.8-22.9h0l-0.6-1l-10.5-17.5l-10.5,17.5
			c-37.3,4.7-66.5,34-71.3,71.3l-17.5,10.5l17.5,10.5c4.7,37.3,34,66.5,71.3,71.3l10.5,17.5l10.5-17.5c37.3-4.7,66.5-34,71.3-71.3
			l17.5-10.5L431.6,208.4z M406.8,178v27.3l-7.1-3.5l0,0l-0.1-0.1l-0.1,0v-15.8l-8-8l7.6-7.6L406.8,178z M429.8,218.9L400,233.8V204
			L429.8,218.9z M366.9,266.1V252l16.7-16.7l-18.1-18.1V235l-16.4,16.4v15.8h-15.4L302.6,236h14.1l16.7,16.7l18-18.1h-17.8
			l-16.4-16.4h-15.8v-15.3l31.2-31.2v14.1l-16.7,16.7l18,18v-17.8l16.4-16.4v-15.8h15.4l31.2,31.2h-14.1l-16.7-16.7l-18.1,18H366
			l16.4,16.4h15.8v15.4L366.9,266.1z M367.7,267.3l-0.1,0.3h-0.2L367.7,267.3z M365.6,251.4v15.8h-15V252l16.4-16.4v-15l14.8,14.8
			L365.6,251.4z M366,267.7l-0.2,0.2L366,267.7L366,267.7z M292.9,232.4l7.1,3.5v-0.1l0.1,0.1h0.2v15.9l8,8l-7.5,7.6l-7.7-7.7V232.4
			z M269.8,218.9l29.9-14.9v29.9L269.8,218.9z M301.1,200.7v-14.5l16.1-16.1h14.5L301.1,200.7z M301.5,219.6h15.2l16.4,16.4h15
			l-14.7,14.8l-16.1-16.1h-15.8V219.6z M331.7,267.7h-14.5l-16.1-16.1V237L331.7,267.7z M301.1,235.1l-0.2-0.2L301.1,235.1
			L301.1,235.1z M309,275.9l-7.7-7.7l7.6-7.6l8,8h15.8l0,0.1l3.6,7.2H309z M334.9,269h29.9l-14.9,29.9L334.9,269z M349.1,170.6v15.2
			l-16.4,16.4v15L318,202.5l16.1-16.1v-15.8H349.1z M334.9,168.7l14.9-29.9l14.9,29.9H334.9z M398.2,203.1v15h-15.2l-16.4-16.4h-15
			l14.8-14.7l16.1,16.1H398.2z M398.6,237v14.5l-7.7,7.7l-0.7,0.6l-7.7,7.7H368L398.6,237z M398.3,236.7l0.3-0.3v0.2L398.3,236.7z
			 M368,170.1h14.5l7.7,7.7l0.7,0.6l7.7,7.7v14.5L368,170.1z M398.6,235l0.2-0.1L398.6,235L398.6,235z M390.7,161.9l7.7,7.7
			l-7.5,7.6l-8-8h-15.8l0-0.1l-3.6-7.2H390.7z M340.5,136.9l9.4-15.6l9.4,15.6l14.4,24.1h-10.7l-13.1-26.2L336.7,161H326
			L340.5,136.9z M309,161.9h27.3l-3.5,7.1h0.1l-0.1,0.1v0.1h-15.9l-8,8l-7.6-7.6L309,161.9z M292.9,178l7.7-7.7l7.5,7.6l-8,8v15.8
			l-0.1,0l-7.2,3.6V178z M267.9,228.3l-15.6-9.4l15.6-9.4l24.1-14.4v10.7l-26.2,13.1L292,232v10.7L267.9,228.3z M359.2,300.8
			l-9.4,15.6l-9.4-15.6L326,276.8h10.7l13.1,26.2l13.1-26.2h10.7L359.2,300.8z M361,299.7L361,299.7l13.7-22.9L361,299.7z
			 M390.7,275.9h-27.3l3.5-7.1h-0.1l0.1-0.1l0.1-0.1l0-0.1h15.8l8-8l7.5,7.6L390.7,275.9z M406.8,259.7l-7.7,7.7l-7.6-7.6l8-8v-15.8
			l0.1-0.1l7.2-3.6V259.7z M407.7,242.7V232l26.2-13.1l-26.2-13.1v-10.7l24.1,14.4l15.6,9.4l-15.6,9.4L407.7,242.7z"/>
	</g>
	<g>
		<path d="M399.7,201.8L399.7,201.8L399.7,201.8L399.7,201.8z"/>
	</g>
	<g>
		<path d="M366,267.7l-0.1,0.2L366,267.7L366,267.7z M366.8,268.8L366.8,268.8L366.8,268.8L366.8,268.8z"/>
	</g>
	<g>
		<path d="M299.9,235.9L299.9,235.9L299.9,235.9L299.9,235.9z M300.9,234.9l0.2,0.2V235L300.9,234.9z"/>
	</g>
	<g>
		<path d="M366,267.7l-0.1,0.2L366,267.7L366,267.7z M367.3,267.7h0.2l0.1-0.3L367.3,267.7z M300,236L300,236l0.2,0.2V236H300z
			 M300.9,234.9l0.2,0.2V235L300.9,234.9z M332.6,268.6L332.6,268.6L332.6,268.6L332.6,268.6z M366,267.7l-0.1,0.2L366,267.7
			L366,267.7z M367.1,268.6L367.1,268.6L367.1,268.6L367.1,268.6z M367.3,267.7h0.2l0.1-0.3L367.3,267.7z M398.3,236.7l0.3-0.1v-0.2
			L398.3,236.7z M398.6,235L398.6,235l0.2-0.1L398.6,235z M399.5,236.1L399.5,236.1L399.5,236.1L399.5,236.1z M300.1,201.7
			L300.1,201.7L300.1,201.7L300.1,201.7z M332.6,169.2h0.1v-0.1L332.6,169.2z M366,267.7l-0.1,0.2L366,267.7L366,267.7z
			 M367.3,267.7h0.2l0.1-0.3L367.3,267.7z"/>
	</g>
	<g>
		<path d="M332.8,169L332.8,169l-0.1,0.1l0,0.1h0.1L332.8,169L332.8,169L332.8,169z"/>
	</g>
	<g>
		<path d="M300,236L300,236L300,236L300,236l0.2,0.1V236H300z M300.9,234.9l0.2,0.2V235L300.9,234.9z"/>
	</g>
	<g>
		<path d="M366,267.7l-0.1,0.2L366,267.7L366,267.7z M366.9,268.7L366.9,268.7L366.9,268.7L366.9,268.7L366.9,268.7z M367.3,267.7
			h0.2l0.1-0.3L367.3,267.7z"/>
	</g>
	<g>
		<path d="M398.3,236.7l0.3-0.1v-0.2L398.3,236.7z M398.6,235L398.6,235l0.2-0.1L398.6,235z"/>
	</g>
	<g>
		<path d="M366,267.7l-0.1,0.2L366,267.7L366,267.7z"/>
	</g>
	<g>
		<path d="M300.9,234.9l0.2,0.2V235L300.9,234.9z"/>
	</g>
	<g>
		<path d="M398.6,235L398.6,235l0.2-0.1L398.6,235z"/>
	</g>
	<g>
		<path d="M361,138.1L361,138.1l13.7,22.9L361,138.1z"/>
	</g>
	<g>
		<path d="M360.9,299.7L360.9,299.7l13.8-22.9L360.9,299.7z"/>
	</g>
	<g>
		<path d="M431.6,208.4l-1-0.6L407.7,194v-16.3L391,161h-16.3L361,138.1l-0.6-1C397.6,141.8,426.9,171.1,431.6,208.4z"/>
	</g>
	<g>
		<path d="M349.8,213.4c-3,0-5.5,2.4-5.5,5.5s2.4,5.5,5.5,5.5c3,0,5.5-2.4,5.5-5.5S352.8,213.4,349.8,213.4z M348.1,222.4
			c-1.8-1.3-2.2-3.8-1-5.7c0.4-0.6,1.4,0.1,0.9,0.7c-0.9,1.3-0.6,3.1,0.7,4C349.4,221.9,348.7,222.8,348.1,222.4z"/>
	</g>
	<g>
		<circle cx="415.5" cy="218.9" r="2.7"/>
	</g>
	<g>
		<circle cx="349.8" cy="153.2" r="2.7"/>
	</g>
	<g>
		<circle cx="349.8" cy="284.5" r="2.7"/>
	</g>
	<g>
		<circle cx="284.2" cy="218.9" r="2.7"/>
	</g>
</g>
</svg>
